<?xml version="1.0" standalone="no"?><!DOCTYPE svg PUBLIC "-//W3C//DTD SVG 1.1//EN" "http://www.w3.org/Graphics/SVG/1.1/DTD/svg11.dtd"><svg class="icon" width="200px" height="200.00px" viewBox="0 0 1024 1024" version="1.1" xmlns="http://www.w3.org/2000/svg"><path fill="#333333" d="M856.3 201.9H167.7c-21.9 0-39.7 17.8-39.7 39.7v540.9c0 21.9 17.8 39.7 39.7 39.7h688.7c21.9 0 39.7-17.8 39.7-39.7V241.6c-0.1-21.9-17.9-39.7-39.8-39.7z m-677.7 50.6h3.3c-0.3 2.8-1.5 5.4-3.3 7.7v-7.7z m666.8 0v7.7c-1.9-2.3-3-4.9-3.3-7.7h3.3z m-14.7 0L512 515.2 193.3 252.5h637.4z m-652.1 519V306l309.6 255.1c6.5 6 14.9 9.2 23.8 9.2s17.3-3.3 23.8-9.2L845.4 306v465.5H178.6z" /></svg>